<svg xmlns="http://www.w3.org/2000/svg" xmlns:xlink="http://www.w3.org/1999/xlink" version="1.1" width="256" height="256" viewBox="0 0 256 256" xml:space="preserve">
<g style="stroke: none; stroke-width: 0; stroke-dasharray: none; stroke-linecap: butt; stroke-linejoin: miter; stroke-miterlimit: 10; fill: none; fill-rule: nonzero; opacity: 1;" transform="translate(1.4065934065934016 1.4065934065934016) scale(2.81 2.81)">
	<path d="M 70.584 51.148 c -6.331 0 -11.947 3.06 -15.493 7.763 l -17.039 -8.513 c 0.498 -1.716 0.779 -3.524 0.779 -5.399 c 0 -1.875 -0.281 -3.682 -0.779 -5.398 l 17.039 -8.513 c 3.547 4.703 9.162 7.762 15.493 7.762 C 81.29 38.852 90 30.142 90 19.436 C 90 8.73 81.29 0.02 70.584 0.02 S 51.168 8.73 51.168 19.436 c 0 1.875 0.281 3.682 0.779 5.399 l -17.038 8.512 c -3.547 -4.703 -9.162 -7.763 -15.493 -7.763 C 8.71 25.584 0 34.294 0 45 s 8.71 19.416 19.416 19.416 c 6.331 0 11.946 -3.06 15.493 -7.763 l 17.038 8.513 c -0.498 1.716 -0.779 3.524 -0.779 5.399 c 0 10.705 8.71 19.415 19.416 19.415 S 90 81.27 90 70.564 C 90 59.858 81.29 51.148 70.584 51.148 z M 70.584 7.02 C 77.431 7.02 83 12.59 83 19.436 s -5.569 12.416 -12.416 12.416 s -12.416 -5.569 -12.416 -12.416 S 63.737 7.02 70.584 7.02 z M 19.416 57.416 C 12.57 57.416 7 51.847 7 45 s 5.57 -12.416 12.416 -12.416 S 31.832 38.153 31.832 45 S 26.262 57.416 19.416 57.416 z M 70.584 82.979 c -6.847 0 -12.416 -5.569 -12.416 -12.415 c 0 -6.847 5.569 -12.416 12.416 -12.416 S 83 63.718 83 70.564 C 83 77.41 77.431 82.979 70.584 82.979 z" style="stroke: none; stroke-width: 1; stroke-dasharray: none; stroke-linecap: butt; stroke-linejoin: miter; stroke-miterlimit: 10; fill: rgb(29,29,27); fill-rule: nonzero; opacity: 1;" transform=" matrix(1 0 0 1 0 0) " stroke-linecap="round"/>
</g>
</svg>